<?xml version="1.0" encoding="utf-8"?>
<!-- Generator: Adobe Illustrator 21.0.2, SVG Export Plug-In . SVG Version: 6.00 Build 0)  -->
<svg version="1.1" id="Слой_1" xmlns="http://www.w3.org/2000/svg" xmlns:xlink="http://www.w3.org/1999/xlink" x="0px" y="0px"
	 viewBox="0 0 64 63" style="enable-background:new 0 0 64 63;" xml:space="preserve">
<title>003 relived expression face girl emoticon woman</title>
<desc>Created with Sketch.</desc>
<g>
	<g transform="translate(-248.000000, -86.000000)">
		<g transform="translate(88.000000, 87.000000)">
			<path d="M207.4,56c-4.1,3.7-9.5,6-15.4,6s-11.4-2.3-15.4-6c-5.3-1.4-10.7-3.4-16-6.2c-0.6-0.3-0.7-1.1-0.2-1.6
				c1.8-1.8,2.7-4.9,2.7-9.3V29c0-16,13-29,29-29s29,13,29,29v10c0,4.4,0.9,7.5,2.7,9.3c0.5,0.5,0.4,1.3-0.2,1.6
				C218.1,52.6,212.8,54.7,207.4,56z M210.1,53.2c3.8-1.2,7.6-2.7,11.4-4.6c-1.6-2.2-2.4-5.5-2.4-9.7V29c0-14.9-12.1-27-27-27
				s-27,12.1-27,27v10c0,4.2-0.8,7.4-2.4,9.7c3.8,1.9,7.6,3.4,11.4,4.6c-3.1-3.9-4.9-8.9-4.9-14.2v-7c0-0.6,0.4-1,1-1h6.4l4.7-8.5
				c0.5-0.9,1.9-0.5,1.9,0.5v8h17v-8c0-1,1.4-1.4,1.9-0.5l4.7,8.5h7.4c0.6,0,1,0.4,1,1v7C215,44.4,213.2,49.3,210.1,53.2z M171,33v6
				c0,11.6,9.4,21,21,21s21-9.4,21-21v-6h-7c-0.4,0-0.7-0.2-0.9-0.5l-3.1-5.6V32c0,0.6-0.4,1-1,1h-19c-0.6,0-1-0.4-1-1v-5.1
				l-3.1,5.6c-0.2,0.3-0.5,0.5-0.9,0.5H171z"/>
		</g>
		<g transform="translate(105.000000, 123.000000)">
			<path d="M170.6,13.2c1.1,1,2.7,1.5,4.4,1.5s3.2-0.6,4.4-1.5c0.7-0.6,1.8,0,1.6,0.9c-0.5,3.3-3,5.9-6,5.9s-5.5-2.5-6-5.9
				C168.9,13.2,169.9,12.6,170.6,13.2z M175,18c1.2,0,2.4-0.7,3.1-1.8c-1,0.4-2,0.5-3.1,0.5s-2.2-0.2-3.1-0.5
				C172.6,17.3,173.8,18,175,18z"/>
			<path d="M160.2,5.6c-0.4-0.4-0.3-1.1,0.1-1.4s1.1-0.3,1.4,0.1c0.8,0.9,1.9,1.5,3.2,1.5s2.5-0.6,3.2-1.5c0.4-0.4,1-0.5,1.4-0.1
				s0.5,1,0.1,1.4c-1.1,1.4-2.9,2.2-4.8,2.2S161.4,7,160.2,5.6z"/>
			<path d="M180.2,5.6c-0.4-0.4-0.3-1.1,0.1-1.4s1.1-0.3,1.4,0.1c0.8,0.9,1.9,1.5,3.2,1.5s2.5-0.6,3.2-1.5c0.4-0.4,1-0.5,1.4-0.1
				s0.5,1,0.1,1.4c-1.1,1.4-2.9,2.2-4.8,2.2S181.4,7,180.2,5.6z"/>
		</g>
	</g>
</g>
</svg>
