<svg id="Слой_1" data-name="Слой 1" xmlns="http://www.w3.org/2000/svg" viewBox="0 0 105.36 92.88">
  <defs>
    <style>
      .cls-1 {
        opacity: 0.7;
      }

      .cls-2 {
        fill: #374ae9;
      }

      .cls-3 {
        fill: #79faa5;
      }

      .cls-4 {
        fill: #ffdb45;
      }
    </style>
  </defs>
  <title>noun_internet_26691</title>
  <g class="cls-1">
    <circle cx="44" cy="48.88" r="44"/>
  </g>
  <g>
    <circle class="cls-2" cx="48.75" cy="45.88" r="44"/>
    <path d="M48.75,91.38a45.5,45.5,0,1,1,45.5-45.5A45.55,45.55,0,0,1,48.75,91.38Zm0-88a42.5,42.5,0,1,0,42.5,42.5A42.55,42.55,0,0,0,48.75,3.38Z"/>
  </g>
  <g>
    <path class="cls-3" d="M28.81,85.1c1.25-.9,2.86-2.37,3-4.36.31-3.21-3.37-4.84-5.7-9.17a18.77,18.77,0,0,1-1.55-12.08c1.91-9.31,11.85-12.21,10.75-15.75-1-3.37-10-.75-15.3-5.41-5.47-4.83-4.33-15.19-2.29-23.69a43.88,43.88,0,0,1,24-12.21,13.55,13.55,0,0,0,5.55,7.07c5.52,3.2,12.24.35,12.75,1.75.69,1.89-12,5.94-12,11.75,0,4,5.93,5.05,6,9.25.09,5.3-9.25,7.39-9,11.5.29,4.78,13.09,4.47,16.75,10.75,2.81,4.83.77,14.5-17.49,35.17A49,49,0,0,1,28.81,85.1Z"/>
    <path d="M44.37,91.16h-.18a50.51,50.51,0,0,1-16-4.7,1.5,1.5,0,0,1-.22-2.57c1.51-1.09,2.33-2.19,2.43-3.28s-.66-2.1-2.14-3.76a22.92,22.92,0,0,1-3.39-4.55,20.32,20.32,0,0,1-1.7-13.09c1.18-5.76,5.1-9.22,8-11.74,1.34-1.18,3-2.65,2.82-3.26s-2.47-.91-4.3-1.12c-3.31-.37-7.43-.84-10.57-3.61-4.82-4.26-5.75-12.72-2.76-25.17a1.5,1.5,0,0,1,.4-.71A45.39,45.39,0,0,1,41.57.94a1.5,1.5,0,0,1,1.63.94,12,12,0,0,0,4.91,6.31c3,1.73,6.42,1.45,8.94,1.24,2.08-.17,3.88-.32,4.47,1.3.68,1.89-1.31,3.1-4.33,4.93S49.6,20.26,49.61,23c0,1.21.92,2.07,2.41,3.36s3.54,3.07,3.59,5.87c.06,3.57-2.92,5.77-5.55,7.71-1.73,1.28-3.52,2.6-3.45,3.72.08,1.36,3.06,2.41,5.94,3.43,4,1.4,8.47,3,10.61,6.66,4,6.86-1.78,18.94-17.67,36.92A1.5,1.5,0,0,1,44.37,91.16ZM31.54,84.69a47.68,47.68,0,0,0,7.91,2.59c1.42.33,2.87.6,4.32.79,17.82-20.32,19-29.07,16.8-32.83-1.58-2.71-5.53-4.11-9-5.34-4-1.4-7.73-2.73-7.94-6.08-.17-2.75,2.29-4.57,4.67-6.32,2.15-1.58,4.37-3.22,4.33-5.24,0-1.36-1-2.29-2.56-3.65s-3.43-3-3.44-5.62c0-4.42,5.21-7.59,9-9.9l1-.62c-2.72.21-6.53.35-10-1.69a14.26,14.26,0,0,1-5.72-6.68A42.38,42.38,0,0,0,19.13,15.4c-2.59,11-1.95,18.38,1.93,21.8,2.43,2.15,5.88,2.53,8.92,2.88s6,.68,6.83,3.21-1.3,4.29-3.7,6.4c-2.69,2.37-6,5.32-7,10.09a17.22,17.22,0,0,0,1.4,11.07,20.52,20.52,0,0,0,3,4c1.61,1.8,3.14,3.5,2.89,6A6.56,6.56,0,0,1,31.54,84.69Z"/>
  </g>
  <g class="cls-1">
    <path d="M92.2,78.84l-11.5-19-6.5,8.5L69.13,34.89l27.07,18-8.5,2.5L99.45,74.09Z"/>
  </g>
  <g>
    <path class="cls-4" d="M93.86,75,82.36,56l-6.5,8.5L70.79,31,97.86,49l-8.5,2.5,11.75,18.75Z"/>
    <path d="M93.86,76.49a1.52,1.52,0,0,1-.33,0,1.5,1.5,0,0,1-1-.69L82.22,58.65,77.05,65.4a1.5,1.5,0,0,1-2.67-.69L69.31,31.26a1.5,1.5,0,0,1,2.31-1.48l27.07,18a1.5,1.5,0,0,1-.41,2.69l-6.6,1.94,10.7,17.07a1.5,1.5,0,0,1-.45,2.05l-7.25,4.75A1.51,1.51,0,0,1,93.86,76.49Zm-11.5-22h.08a1.5,1.5,0,0,1,1.2.72l10.7,17.67,4.72-3.09-11-17.5A1.5,1.5,0,0,1,88.94,50l5.41-1.59L72.78,34.16l4,26.62,4.35-5.69A1.5,1.5,0,0,1,82.36,54.49Z"/>
  </g>
</svg>
