<?xml version="1.0" encoding="UTF-8"?>
<svg width="132px" height="138px" viewBox="0 0 132 138" version="1.1" xmlns="http://www.w3.org/2000/svg" xmlns:xlink="http://www.w3.org/1999/xlink">
    <!-- Generator: Sketch 49.2 (51160) - http://www.bohemiancoding.com/sketch -->
    <title>Group 13</title>
    <desc>Created with Sketch.</desc>
    <defs>
        <path d="M104.366091,29.6657969 L104.347737,29.6790123 C41.2201646,37.1687243 10.191358,36.3662551 11.2613169,27.2716049 C12.8662551,13.6296296 32.7016461,3.20987654 56,0 C64.5418381,0 87.3449931,5.0781893 124.409465,15.2345679 L126.014403,61.7777778 L105.952675,97.8888889 L104.366091,29.6657969 Z" id="path-1"></path>
        <path d="M12.4767102,25.1679533 C6.85942627,27.5753607 1.24214232,86.9580768 21.3038707,98.1926447 C41.3655991,109.427213 102.353253,104.612398 106.365599,98.1926447 C111.982883,94.9827681 115.995229,30.7852373 106.365599,25.1679533 C86.3038707,9.92103975 31.7359695,3.50128667 12.4767102,25.1679533 Z" id="path-2"></path>
    </defs>
    <g id="Page-1" stroke="none" stroke-width="1" fill="none" fill-rule="evenodd">
        <g id="A4-Copy-2" transform="translate(-70.000000, -282.000000)">
            <g id="Group-13" transform="translate(70.000000, 282.000000)">
                <path d="" id="Path-16" stroke="#000000" stroke-width="3" fill="#74FFA4"></path>
                <path d="M97.0987654,137.209877 L10.4320988,136.407407 L10.4320988,118.753086 L16.4506173,110.728395 L17.8614506,108.774934 C16.4823657,108.239507 15.2165241,107.655336 14.0816485,107.019805 C-4.68580947,96.5100287 -0.980708568,43.8642044 4.17419606,35.1442361 C6.33000176,22.1553455 20.6119737,15.9612283 43.3600823,12.8271605 C51.9019204,12.8271605 76.5109739,16.5720165 117.187243,24.0617284 L118.792181,70.6049383 L108.922914,88.3696189 L121.17284,88.2592593 L121.147858,88.2919941 C121.704437,88.274946 122.247744,88.2640343 122.777778,88.2592593 C122.242798,93.0740741 121.440329,99.2263374 120.37037,106.716049 L98.3763948,135.535742 L98.301333,137.262162 L97.0987654,137.209877 Z" id="Combined-Shape" fill="#000000" opacity="0.498471467"></path>
                <path d="M17.654321,127.580247 L17.654321,109.925926 L27.2839506,97.0864198 L36.9222478,100.901579 L38.5185185,98.691358 C82.567573,86.0044519 113.0614,79.5846988 130,79.4320988 C129.465021,84.2469136 128.662551,90.399177 127.592593,97.8888889 L104.320988,128.382716 L17.654321,127.580247 Z" id="Combined-Shape" stroke="#000000" stroke-width="3" fill="#74FFA4"></path>
                <polygon id="Rectangle-21" stroke="#000000" stroke-width="3" fill="#74FFA4" points="39.3209877 80.2345679 128.395062 79.4320988 105.123457 109.925926 18.4567901 109.123457"></polygon>
                <g id="Combined-Shape">
                    <use fill="#74FFA4" fill-rule="evenodd" xlink:href="#path-1"></use>
                    <path stroke="#000000" stroke-width="3" d="M56.1014194,1.50024595 C56.1358423,1.49547027 56.1702776,1.49070946 56.2047252,1.48596353 L56,1.5 C56.0335734,1.5 56.0673798,1.50008198 56.1014194,1.50024595 Z M122.94841,16.3898329 C123.301972,16.4864981 123.656852,16.5836332 124.01305,16.6812381 L122.910356,15.2862613 L122.94841,16.3898329 Z M124.500944,61.4133153 L124.515294,61.8294712 L124.703167,61.0493134 L124.500944,61.4133153 Z M107.323852,92.3320804 L104.641439,97.1604245 L107.452269,97.8540146 L107.323852,92.3320804 Z M103.786049,28.2350771 L103.47128,28.4617108 L104.347737,29.6790123 L104.17101,28.1894595 C104.042556,28.2046998 103.914236,28.2199057 103.786049,28.2350771 Z"></path>
                </g>
                <g id="Path-11">
                    <use fill="#74FFA4" fill-rule="evenodd" xlink:href="#path-2"></use>
                    <path stroke="#000000" stroke-width="3" d="M13.5978242,26.1644991 L13.3753632,26.4147677 L13.0675892,26.5466709 C12.4027753,26.8315911 11.0648227,30.6814211 10.144983,36.2579492 C9.09644802,42.6146925 8.57165541,50.5554608 8.76022026,58.3337609 C9.22702361,77.5893991 13.7234836,92.228442 22.0367758,96.8838857 C30.8307461,101.808509 49.1267273,103.995492 69.8038297,103.31383 C87.6876259,102.724254 103.534434,99.8923148 105.093602,97.3976463 L105.293658,97.0775556 L105.621391,96.89028 C106.360869,96.467721 107.635687,92.2617765 108.60723,85.988724 C109.620986,79.4431128 110.336762,70.9890398 110.583833,62.5392359 C111.142445,43.4346779 109.212396,28.5651401 105.609793,26.4636217 L105.457974,26.3621966 C95.7389363,18.9757278 77.4033543,13.6173842 59.0554244,12.8239602 C39.006292,11.9569707 22.1677237,16.5233621 13.5978242,26.1644991 Z"></path>
                </g>
                <path d="M22.586306,31.8118385 C18.1716678,33.7038263 13.7570296,80.3728586 29.5235946,89.202135 C45.2901596,98.0314114 93.2205171,94.2474358 96.3738301,89.202135 C100.788468,86.6794846 103.941781,36.2264767 96.3738301,31.8118385 C80.6072651,19.8292491 37.7222084,14.7839483 22.586306,31.8118385 Z" id="Path-11-Copy" stroke="#000000" stroke-width="3" fill="#3544F1"></path>
                <path d="M104.320988,128.382716 L105.123457,109.925926" id="Path-15" stroke="#000000" stroke-width="3"></path>
                <ellipse id="Oval-11" fill="#FFFFFF" cx="83.4567901" cy="44.1234568" rx="2.40740741" ry="9.62962963"></ellipse>
                <circle id="Oval-12" stroke="#000000" stroke-width="3" fill="#FFDF50" cx="89.8765432" cy="119.555556" r="4.01234568"></circle>
            </g>
        </g>
    </g>
</svg>