<?xml version="1.0" encoding="UTF-8"?>
<svg width="100px" height="121px" viewBox="0 0 100 121" version="1.1" xmlns="http://www.w3.org/2000/svg" xmlns:xlink="http://www.w3.org/1999/xlink">
    <!-- Generator: Sketch 50.2 (55047) - http://www.bohemiancoding.com/sketch -->
    <title>Group</title>
    <desc>Created with Sketch.</desc>
    <defs></defs>
    <g id="Page-1" stroke="none" stroke-width="1" fill="none" fill-rule="evenodd">
        <g id="Desktop-HD" transform="translate(-179.000000, -315.000000)" fill="#1D1D1B">
            <g id="Group" transform="translate(179.000000, 315.000000)">
                <polygon id="Fill-1" points="23.3870968 45.9677419 41.1290323 45.9677419 41.1290323 28.2258065 23.3870968 28.2258065"></polygon>
                <polygon id="Fill-2" points="30.5096774 95.9 41.1290323 95.9 41.1290323 85.2806452 30.5096774 85.2806452"></polygon>
                <polygon id="Fill-3" points="64.516129 95.9 75.1354839 95.9 75.1354839 85.2806452 64.516129 85.2806452"></polygon>
                <polygon id="Fill-4" points="41.1290323 83.8709677 64.516129 83.8709677 64.516129 75 41.1290323 75"></polygon>
                <path d="M12.9032258,108.064516 L87.0967742,108.064516 L87.0967742,51.3451613 L57.2580645,51.3451613 L50.8064516,51.3451613 L50.8064516,12.9032258 L12.9032258,12.9032258 L12.9032258,108.064516 Z M100,120.967742 L0,120.967742 L0,0 L63.7096774,0 L63.7096774,38.4419355 L87.8774194,38.4419355 C94.6516129,38.4419355 100,38.4419355 100,44.8935484 L100,120.967742 Z" id="Fill-5"></path>
            </g>
        </g>
    </g>
</svg>