<?xml version="1.0" encoding="utf-8"?>
<!-- Generator: Adobe Illustrator 21.0.2, SVG Export Plug-In . SVG Version: 6.00 Build 0)  -->
<svg version="1.1" id="Layer_1" xmlns="http://www.w3.org/2000/svg" xmlns:xlink="http://www.w3.org/1999/xlink" x="0px" y="0px"
	 viewBox="0 0 13 13.1" style="enable-background:new 0 0 13 13.1;" xml:space="preserve">
<style type="text/css">
	.st0{fill:#1D1E1C;}
	.st1{fill:none;stroke:#000000;stroke-miterlimit:10;}
</style>
<title>x_1</title>
<g>
	<g>
		<path class="st0" d="M10.1,8.8c-0.2,0-0.5-0.1-0.6-0.3L8.3,6.8C8.1,6.5,8.2,6,8.5,5.8c0.3-0.2,0.8-0.1,1,0.2l1.1,1.7
			c0.2,0.3,0.1,0.8-0.2,1C10.4,8.8,10.2,8.8,10.1,8.8z"/>
	</g>
	<g>
		<path class="st0" d="M10.1,8.8c-0.2,0-0.5-0.1-0.6-0.3c-0.2-0.3-0.1-0.8,0.2-1l1.7-1.1c0.3-0.2,0.8-0.1,1,0.2
			c0.2,0.3,0.1,0.8-0.2,1l-1.7,1.1C10.4,8.8,10.2,8.8,10.1,8.8z"/>
	</g>
	<g>
		<path class="st0" d="M5.8,11.8c-2.9,0-5.3-2.4-5.3-5.3c0-2.9,2.4-5.3,5.3-5.3c2.9,0,5.3,2.4,5.3,5.3c0,0.6-0.1,1.1-0.3,1.6
			c-0.1,0.4-0.5,0.6-0.9,0.5C9.5,8.5,9.3,8.1,9.4,7.7c0.1-0.4,0.2-0.8,0.2-1.2c0-2.1-1.7-3.8-3.8-3.8C3.7,2.7,2,4.4,2,6.5
			c0,2.1,1.7,3.8,3.8,3.8c0.4,0,0.8,0.3,0.8,0.8S6.2,11.8,5.8,11.8z"/>
	</g>
</g>
<line class="st1" x1="49" y1="110" x2="33.2" y2="110"/>
</svg>
